<svg xmlns="http://www.w3.org/2000/svg" xmlns:xlink="http://www.w3.org/1999/xlink" width="529" zoomAndPan="magnify" viewBox="0 0 396.75 396.749984" height="529" preserveAspectRatio="xMidYMid meet" version="1.0"><defs><clipPath id="81f93261f8"><path d="M 8 265 L 165 265 L 165 392.84375 L 8 392.84375 Z M 8 265 " clip-rule="nonzero"/></clipPath><clipPath id="ce133c6410"><path d="M 162 265 L 389 265 L 389 392.84375 L 162 392.84375 Z M 162 265 " clip-rule="nonzero"/></clipPath><clipPath id="6d7ecd7be9"><path d="M 175 366 L 220 366 L 220 392.84375 L 175 392.84375 Z M 175 366 " clip-rule="nonzero"/></clipPath><clipPath id="22459eb75a"><path d="M 189 378 L 207 378 L 207 392.84375 L 189 392.84375 Z M 189 378 " clip-rule="nonzero"/></clipPath><clipPath id="e9930441dc"><path d="M 244 272 L 379 272 L 379 392.84375 L 244 392.84375 Z M 244 272 " clip-rule="nonzero"/></clipPath><clipPath id="516350fb17"><path d="M 18 272 L 153 272 L 153 392.84375 L 18 392.84375 Z M 18 272 " clip-rule="nonzero"/></clipPath><clipPath id="b01db01126"><path d="M 8 4.34375 L 165 4.34375 L 165 131 L 8 131 Z M 8 4.34375 " clip-rule="nonzero"/></clipPath><clipPath id="d14358a233"><path d="M 162 4.34375 L 389 4.34375 L 389 131 L 162 131 Z M 162 4.34375 " clip-rule="nonzero"/></clipPath><clipPath id="872ce0a3fb"><path d="M 175 4.34375 L 220 4.34375 L 220 30 L 175 30 Z M 175 4.34375 " clip-rule="nonzero"/></clipPath><clipPath id="be2e668502"><path d="M 189 4.34375 L 207 4.34375 L 207 18 L 189 18 Z M 189 4.34375 " clip-rule="nonzero"/></clipPath><clipPath id="6d22479785"><path d="M 244 4.34375 L 379 4.34375 L 379 124 L 244 124 Z M 244 4.34375 " clip-rule="nonzero"/></clipPath><clipPath id="baa39ee53d"><path d="M 18 4.34375 L 153 4.34375 L 153 124 L 18 124 Z M 18 4.34375 " clip-rule="nonzero"/></clipPath></defs><g clip-path="url(#81f93261f8)"><path fill="#cc8d27" d="M 9.296875 406.5 L 158.53125 406.5 C 159.125 406.5 159.546875 406.074219 159.546875 405.484375 C 159.546875 399.132812 161.15625 393.285156 163.867188 387.953125 C 163.867188 387.867188 163.785156 387.867188 164.207031 387.953125 C 164.460938 388.035156 164.96875 387.019531 164.714844 386.679688 C 164.546875 386.851562 163.785156 385.917969 163.527344 385.917969 L 162.257812 386.597656 C 159.546875 391.59375 157.769531 398.285156 157.601562 404.464844 L 10.230469 404.464844 L 10.230469 265.738281 L 8.195312 265.738281 L 8.195312 405.484375 C 8.28125 406.074219 8.789062 406.5 9.296875 406.5 Z M 9.296875 406.5 " fill-opacity="1" fill-rule="nonzero"/></g><path fill="#cc8d27" d="M 367.730469 386.933594 C 368.324219 386.933594 369.253906 386.003906 369.253906 385.410156 L 369.253906 265.820312 L 367.222656 265.820312 L 367.222656 384.902344 L 233.488281 384.902344 C 233.402344 384.902344 232.300781 384.734375 232.300781 384.734375 C 232.21875 385.070312 233.996094 385.15625 233.910156 385.410156 C 234.082031 385.832031 233.234375 386.34375 233.402344 386.679688 L 234.589844 386.851562 C 234.589844 386.933594 367.730469 386.933594 367.730469 386.933594 Z M 367.730469 386.933594 " fill-opacity="1" fill-rule="nonzero"/><path fill="#cc8d27" d="M 232.980469 386.34375 C 233.066406 386.765625 234.25 387.359375 234.671875 387.359375 C 234.25 386.933594 233.910156 385.15625 233.65625 384.816406 C 233.574219 384.988281 233.148438 386.171875 232.980469 386.34375 Z M 232.980469 386.34375 " fill-opacity="1" fill-rule="nonzero"/><path fill="#cc8d27" d="M 162.175781 385.070312 L 29.878906 385.070312 L 29.878906 265.484375 L 27.847656 265.484375 L 27.847656 386.089844 C 27.847656 386.679688 28.269531 387.105469 28.863281 387.105469 L 162.9375 387.105469 C 163.105469 386.089844 162.34375 386.34375 162.597656 385.917969 C 162.429688 385.664062 162.34375 385.070312 162.175781 385.070312 Z M 162.175781 385.070312 " fill-opacity="1" fill-rule="nonzero"/><path fill="#cc8d27" d="M 161.921875 387.105469 L 162.257812 387.105469 C 162.597656 387.105469 162.851562 387.019531 162.9375 386.765625 C 162.765625 386.425781 162.597656 386.257812 162.429688 386.003906 C 162.34375 386.34375 162.175781 386.679688 161.921875 387.105469 Z M 161.921875 387.105469 " fill-opacity="1" fill-rule="nonzero"/><path fill="#cc8d27" d="M 158.53125 365.253906 L 120.84375 365.253906 C 120.25 365.253906 119.824219 365.675781 119.824219 366.269531 C 119.824219 366.863281 120.25 367.285156 120.84375 367.285156 L 157.515625 367.285156 C 157.683594 373.722656 159.292969 379.3125 162.175781 385.410156 L 162.34375 385.410156 C 162.511719 385.410156 162.765625 385.324219 162.9375 385.496094 C 163.273438 384.988281 163.527344 384.480469 163.699219 383.96875 C 160.988281 378.636719 159.464844 372.707031 159.464844 366.355469 C 159.546875 365.761719 159.125 365.253906 158.53125 365.253906 Z M 158.53125 365.253906 " fill-opacity="1" fill-rule="nonzero"/><g clip-path="url(#ce133c6410)"><path fill="#cc8d27" d="M 386.195312 404.464844 L 238.910156 404.464844 C 238.738281 398.113281 236.960938 391.761719 234.164062 386.511719 C 233.742188 386.511719 233.65625 386.597656 233.488281 386.34375 C 233.574219 386.257812 233.65625 386.003906 233.828125 385.75 C 233.910156 385.578125 233.910156 385.070312 234.25 384.988281 C 236.960938 379.652344 238.65625 373.722656 238.738281 367.371094 L 275.667969 367.371094 C 276.257812 367.371094 276.683594 366.945312 276.683594 366.355469 C 276.683594 365.761719 276.257812 365.335938 275.667969 365.335938 L 237.808594 365.335938 C 237.214844 365.335938 236.792969 365.761719 236.792969 366.355469 C 236.792969 372.621094 235.265625 378.550781 232.554688 383.714844 C 225.355469 372.367188 212.652344 364.828125 198.167969 364.828125 C 183.6875 364.828125 170.898438 372.453125 163.699219 383.800781 C 162.257812 386.511719 164.375 385.242188 164.800781 385.832031 C 169.628906 377.703125 177.589844 371.4375 186.820312 368.472656 L 186.734375 368.300781 C 186.734375 368.21875 187.074219 368.386719 187.074219 368.300781 C 187.160156 367.964844 186.820312 367.625 187.074219 367.457031 C 187.414062 367.285156 187.835938 367.285156 188.175781 367.539062 L 188.683594 368.046875 C 191.734375 367.371094 194.953125 366.863281 198.167969 366.863281 C 201.21875 366.863281 204.097656 367.285156 206.894531 367.878906 L 207.0625 367.710938 C 207.402344 367.539062 207.824219 367.371094 208.164062 367.625 C 208.503906 367.878906 208.585938 368.046875 208.671875 368.300781 C 218.242188 371.011719 226.289062 377.363281 231.285156 385.664062 C 226.375 394.132812 218.242188 400.570312 208.585938 403.367188 C 208.585938 403.703125 208.417969 403.957031 208.078125 404.128906 C 207.65625 404.296875 207.316406 404.296875 206.976562 404.042969 L 206.640625 403.875 C 203.84375 404.464844 200.878906 404.890625 198 404.890625 C 194.78125 404.890625 191.5625 404.464844 188.515625 403.703125 L 188.007812 404.042969 C 187.667969 404.210938 187.242188 404.382812 186.90625 404.128906 C 186.566406 403.957031 186.398438 403.535156 186.398438 403.113281 C 177.25 400.230469 169.457031 393.878906 164.628906 385.75 C 163.105469 385.410156 162.003906 386.34375 163.613281 387.867188 C 170.980469 399.132812 183.6875 406.839844 198.167969 406.839844 C 212.652344 406.839844 225.441406 399.214844 232.640625 387.78125 C 235.351562 393.117188 236.960938 399.132812 236.960938 405.484375 C 236.960938 406.074219 237.382812 406.5 237.976562 406.5 L 387.210938 406.5 C 387.804688 406.5 388.226562 406.074219 388.226562 405.484375 L 388.226562 265.738281 L 386.195312 265.738281 Z M 386.195312 404.464844 " fill-opacity="1" fill-rule="nonzero"/></g><path fill="#cc8d27" d="M 163.867188 383.886719 C 163.527344 384.394531 162.851562 384.648438 162.597656 385.15625 C 162.765625 385.324219 162.003906 385.917969 162.003906 386.257812 C 162.003906 386.597656 163.273438 386.597656 163.105469 386.765625 C 163.273438 387.1875 163.613281 387.441406 163.785156 387.867188 C 164.207031 387.1875 164.460938 386.597656 164.882812 385.917969 C 164.546875 385.324219 164.121094 384.5625 163.867188 383.886719 Z M 163.867188 383.886719 " fill-opacity="1" fill-rule="nonzero"/><path fill="#cc8d27" d="M 233.574219 385.410156 C 233.65625 385.496094 233.65625 385.578125 233.742188 385.75 C 233.828125 385.410156 234.082031 385.242188 234.164062 384.988281 C 233.910156 384.988281 233.742188 385.15625 233.574219 385.410156 Z M 233.574219 385.410156 " fill-opacity="1" fill-rule="nonzero"/><path fill="#cc8d27" d="M 233.574219 385.410156 C 233.488281 385.496094 233.488281 385.75 233.488281 385.917969 C 233.488281 386.003906 233.488281 386.089844 233.574219 386.257812 C 233.65625 386.089844 233.742188 385.917969 233.910156 385.75 C 233.742188 385.664062 233.574219 385.578125 233.574219 385.410156 Z M 233.574219 385.410156 " fill-opacity="1" fill-rule="nonzero"/><path fill="#cc8d27" d="M 162.175781 385.070312 C 162.257812 385.410156 162.511719 385.664062 162.683594 385.832031 C 162.765625 385.664062 162.851562 385.410156 163.019531 385.242188 C 162.851562 385.15625 162.597656 385.070312 162.429688 385.070312 C 162.34375 385.070312 162.175781 385.070312 162.175781 385.070312 Z M 162.175781 385.070312 " fill-opacity="1" fill-rule="nonzero"/><path fill="#cc8d27" d="M 162.9375 385.324219 C 162.851562 385.496094 162.765625 385.75 162.597656 385.917969 C 162.765625 386.257812 162.9375 386.425781 163.105469 386.679688 C 163.273438 386.511719 163.445312 386.257812 163.445312 386.003906 C 163.359375 385.832031 163.105469 385.496094 162.9375 385.324219 Z M 162.9375 385.324219 " fill-opacity="1" fill-rule="nonzero"/><path fill="#cc8d27" d="M 117.03125 367.03125 C 117.199219 366.863281 117.371094 366.523438 117.371094 366.355469 C 117.371094 366.183594 117.285156 365.847656 117.03125 365.675781 L 111.609375 360.257812 C 111.1875 359.832031 110.59375 359.832031 110.171875 360.257812 L 104.75 365.675781 C 104.328125 366.101562 104.328125 366.691406 104.75 367.117188 L 110.171875 372.535156 C 110.59375 372.960938 111.1875 372.960938 111.609375 372.535156 Z M 106.78125 366.269531 L 110.761719 362.289062 L 114.746094 366.269531 L 110.761719 370.25 Z M 106.78125 366.269531 " fill-opacity="1" fill-rule="nonzero"/><path fill="#cc8d27" d="M 129.90625 375.839844 C 129.90625 373.808594 128.296875 372.113281 126.179688 372.113281 C 124.144531 372.113281 122.453125 373.722656 122.453125 375.839844 C 122.453125 377.957031 124.0625 379.566406 126.179688 379.566406 C 128.296875 379.566406 129.90625 377.957031 129.90625 375.839844 Z M 124.570312 375.839844 C 124.570312 374.910156 125.246094 374.144531 126.261719 374.144531 C 127.28125 374.144531 127.957031 374.824219 127.957031 375.839844 C 127.957031 376.855469 127.28125 377.535156 126.261719 377.535156 C 125.246094 377.535156 124.570312 376.855469 124.570312 375.839844 Z M 124.570312 375.839844 " fill-opacity="1" fill-rule="nonzero"/><path fill="#cc8d27" d="M 129.90625 356.785156 C 129.90625 354.75 128.296875 353.058594 126.179688 353.058594 C 124.144531 353.058594 122.453125 354.667969 122.453125 356.785156 C 122.453125 358.902344 124.0625 360.511719 126.179688 360.511719 C 128.296875 360.511719 129.90625 358.902344 129.90625 356.785156 Z M 124.570312 356.785156 C 124.570312 355.851562 125.246094 355.089844 126.261719 355.089844 C 127.28125 355.089844 127.957031 355.765625 127.957031 356.785156 C 127.957031 357.800781 127.28125 358.476562 126.261719 358.476562 C 125.246094 358.476562 124.570312 357.714844 124.570312 356.785156 Z M 124.570312 356.785156 " fill-opacity="1" fill-rule="nonzero"/><path fill="#cc8d27" d="M 133.714844 373.722656 C 133.207031 373.808594 132.785156 374.398438 133.039062 374.910156 C 133.125 375.417969 133.714844 375.839844 134.222656 375.585938 L 148.621094 371.859375 C 149.128906 371.773438 149.386719 371.351562 149.386719 370.84375 C 149.386719 370.757812 149.386719 370.671875 149.386719 370.671875 C 149.300781 370.164062 148.707031 369.742188 148.199219 369.996094 Z M 133.714844 373.722656 " fill-opacity="1" fill-rule="nonzero"/><path fill="#cc8d27" d="M 149.386719 361.867188 C 149.386719 361.78125 149.386719 361.695312 149.386719 361.695312 C 149.386719 361.273438 149.046875 360.765625 148.621094 360.679688 L 134.222656 356.953125 C 133.714844 356.867188 133.125 357.121094 133.039062 357.628906 C 132.953125 358.140625 133.207031 358.730469 133.714844 358.816406 L 148.113281 362.542969 C 148.707031 362.796875 149.214844 362.457031 149.386719 361.867188 Z M 149.386719 361.867188 " fill-opacity="1" fill-rule="nonzero"/><path fill="#cc8d27" d="M 141.421875 353.734375 L 146.757812 357.460938 C 147.265625 357.800781 147.859375 357.628906 148.199219 357.121094 C 148.285156 356.953125 148.367188 356.699219 148.367188 356.53125 C 148.367188 356.191406 148.199219 355.9375 147.945312 355.765625 L 142.609375 352.039062 C 142.101562 351.703125 141.507812 351.871094 141.167969 352.378906 C 140.832031 352.804688 140.914062 353.394531 141.421875 353.734375 Z M 141.421875 353.734375 " fill-opacity="1" fill-rule="nonzero"/><path fill="#cc8d27" d="M 147.945312 376.855469 C 148.285156 376.6875 148.367188 376.347656 148.367188 376.09375 C 148.367188 375.925781 148.285156 375.671875 148.199219 375.5 C 147.859375 374.992188 147.265625 374.910156 146.757812 375.164062 L 141.421875 378.890625 C 140.914062 379.226562 140.832031 379.820312 141.085938 380.328125 C 141.421875 380.835938 142.015625 380.921875 142.523438 380.667969 Z M 147.945312 376.855469 " fill-opacity="1" fill-rule="nonzero"/><g clip-path="url(#6d7ecd7be9)"><path fill="#cc8d27" d="M 207.742188 391.421875 L 218.835938 386.765625 C 219.257812 386.597656 219.765625 386.257812 219.765625 385.832031 C 219.765625 385.410156 219.257812 384.988281 218.835938 384.902344 L 207.910156 380.074219 L 209.09375 368.386719 C 209.09375 368.300781 209.09375 367.371094 209.09375 367.199219 C 208.503906 367.03125 207.742188 366.691406 207.148438 367.539062 L 197.746094 374.398438 L 188.683594 367.457031 C 188.007812 367.625 187.160156 367.199219 186.398438 367.371094 L 187.667969 379.820312 L 176.574219 384.480469 C 176.148438 384.648438 175.640625 384.988281 175.640625 385.410156 C 175.640625 385.832031 176.148438 386.257812 176.574219 386.34375 L 187.5 391.167969 L 186.398438 403.195312 C 186.734375 405.230469 187.835938 403.621094 188.515625 403.789062 L 197.578125 397.183594 L 206.894531 404.042969 C 208.25 405.144531 208.25 403.703125 208.839844 403.449219 C 208.839844 403.367188 208.839844 403.367188 208.839844 403.28125 Z M 198.339844 394.894531 C 197.914062 394.558594 197.40625 394.558594 197.152344 394.894531 L 189.023438 400.824219 L 190.125 390.746094 C 190.207031 390.238281 189.953125 389.816406 189.53125 389.644531 L 180.300781 385.496094 L 189.53125 381.515625 C 189.953125 381.34375 190.207031 380.921875 190.125 380.414062 L 189.105469 370.335938 L 197.238281 376.347656 C 197.660156 376.6875 198.167969 376.6875 198.425781 376.347656 L 206.554688 370.417969 L 205.453125 380.5 C 205.453125 380.921875 205.621094 381.429688 206.046875 381.597656 L 215.277344 385.75 L 206.046875 389.730469 C 205.621094 389.898438 205.453125 390.238281 205.453125 390.746094 L 205.453125 390.832031 L 206.46875 400.910156 Z M 198.339844 394.894531 " fill-opacity="1" fill-rule="nonzero"/></g><path fill="#cc8d27" d="M 208.417969 367.710938 C 207.996094 367.539062 207.65625 367.539062 207.316406 367.792969 L 207.148438 367.964844 C 207.742188 368.046875 208.417969 368.300781 209.09375 368.472656 C 208.839844 368.132812 208.671875 367.792969 208.417969 367.710938 Z M 208.417969 367.710938 " fill-opacity="1" fill-rule="nonzero"/><path fill="#cc8d27" d="M 188.34375 367.710938 C 188.007812 367.539062 187.582031 366.691406 187.242188 366.945312 C 186.90625 367.199219 185.550781 367.878906 186.734375 368.640625 C 187.414062 368.472656 188.175781 368.21875 188.9375 368.046875 Z M 188.34375 367.710938 " fill-opacity="1" fill-rule="nonzero"/><g clip-path="url(#22459eb75a)"><path fill="#cc8d27" d="M 205.453125 386.765625 C 205.878906 386.597656 206.214844 386.257812 206.214844 385.832031 C 206.214844 385.410156 205.792969 385.070312 205.453125 384.902344 L 202.066406 383.378906 L 202.488281 379.734375 C 202.488281 379.3125 202.320312 378.972656 201.980469 378.71875 C 201.558594 378.550781 201.21875 378.550781 200.878906 378.804688 L 198 380.921875 L 195.121094 378.804688 C 194.78125 378.636719 194.359375 378.464844 194.019531 378.71875 C 193.679688 378.890625 193.425781 379.3125 193.511719 379.734375 L 193.933594 383.378906 L 190.378906 384.816406 C 189.953125 384.988281 189.617188 385.324219 189.617188 385.75 C 189.617188 386.171875 190.039062 386.511719 190.378906 386.679688 L 193.765625 388.207031 L 193.34375 391.847656 C 193.257812 392.269531 193.511719 392.609375 193.851562 392.863281 C 194.273438 393.03125 194.613281 393.03125 194.953125 392.777344 L 197.832031 390.660156 L 200.710938 392.777344 C 201.050781 392.949219 201.472656 393.117188 201.8125 392.863281 C 202.152344 392.695312 202.40625 392.269531 202.320312 391.847656 L 201.980469 388.207031 Z M 197.152344 388.460938 L 195.542969 389.644531 L 195.714844 387.613281 C 195.796875 387.105469 195.542969 386.679688 195.121094 386.511719 L 193.34375 385.75 L 195.289062 384.988281 C 195.714844 384.816406 195.96875 384.394531 195.882812 383.886719 L 195.714844 381.851562 L 197.324219 383.039062 C 197.746094 383.378906 198.253906 383.378906 198.507812 383.039062 L 200.117188 381.851562 L 199.949219 383.886719 C 199.949219 384.394531 200.117188 384.816406 200.542969 384.988281 L 202.320312 385.75 L 200.542969 386.511719 C 200.117188 386.679688 199.949219 387.019531 199.949219 387.527344 L 199.949219 387.613281 L 200.117188 389.644531 L 198.507812 388.460938 C 198 388.289062 197.492188 388.289062 197.152344 388.460938 Z M 197.152344 388.460938 " fill-opacity="1" fill-rule="nonzero"/></g><path fill="#cc8d27" d="M 279.476562 365.59375 C 279.054688 366.015625 279.054688 366.609375 279.476562 367.03125 L 284.898438 372.453125 C 285.320312 372.875 285.914062 372.875 286.339844 372.453125 L 291.757812 367.03125 C 291.929688 366.863281 292.097656 366.609375 292.097656 366.355469 C 292.097656 366.101562 292.011719 365.847656 291.757812 365.675781 L 286.339844 360.257812 C 285.914062 359.832031 285.320312 359.832031 284.898438 360.257812 Z M 289.726562 366.269531 L 285.746094 370.25 L 281.765625 366.269531 L 285.746094 362.289062 Z M 289.726562 366.269531 " fill-opacity="1" fill-rule="nonzero"/><path fill="#cc8d27" d="M 266.605469 375.839844 C 266.605469 377.871094 268.214844 379.566406 270.332031 379.566406 C 272.363281 379.566406 274.058594 377.957031 274.058594 375.839844 C 274.058594 373.722656 272.449219 372.113281 270.332031 372.113281 C 268.214844 372.199219 266.605469 373.808594 266.605469 375.839844 Z M 271.941406 375.839844 C 271.941406 376.773438 271.261719 377.535156 270.246094 377.535156 C 269.230469 377.535156 268.550781 376.855469 268.550781 375.839844 C 268.550781 374.824219 269.230469 374.144531 270.246094 374.144531 C 271.261719 374.144531 271.941406 374.910156 271.941406 375.839844 Z M 271.941406 375.839844 " fill-opacity="1" fill-rule="nonzero"/><path fill="#cc8d27" d="M 266.605469 356.785156 C 266.605469 358.816406 268.214844 360.511719 270.332031 360.511719 C 272.363281 360.511719 274.058594 358.902344 274.058594 356.785156 C 274.058594 354.667969 272.449219 353.058594 270.332031 353.058594 C 268.214844 353.140625 266.605469 354.75 266.605469 356.785156 Z M 271.941406 356.785156 C 271.941406 357.714844 271.261719 358.476562 270.246094 358.476562 C 269.230469 358.476562 268.550781 357.800781 268.550781 356.785156 C 268.550781 355.765625 269.230469 355.089844 270.246094 355.089844 C 271.261719 355.089844 271.941406 355.851562 271.941406 356.785156 Z M 271.941406 356.785156 " fill-opacity="1" fill-rule="nonzero"/><path fill="#cc8d27" d="M 263.46875 374.910156 C 263.46875 374.824219 263.46875 374.738281 263.46875 374.738281 C 263.46875 374.316406 263.132812 373.808594 262.707031 373.722656 L 248.308594 369.996094 C 247.800781 369.910156 247.207031 370.164062 247.125 370.671875 C 247.039062 371.183594 247.292969 371.773438 247.800781 371.859375 L 262.285156 375.671875 C 262.792969 375.839844 263.386719 375.585938 263.46875 374.910156 Z M 263.46875 374.910156 " fill-opacity="1" fill-rule="nonzero"/><path fill="#cc8d27" d="M 248.394531 362.710938 L 262.792969 358.984375 C 263.300781 358.902344 263.554688 358.476562 263.554688 357.96875 C 263.554688 357.882812 263.554688 357.800781 263.554688 357.800781 C 263.46875 357.292969 262.878906 356.867188 262.371094 357.121094 L 247.972656 360.847656 C 247.460938 360.933594 247.039062 361.527344 247.292969 362.035156 C 247.292969 362.457031 247.800781 362.796875 248.394531 362.710938 Z M 248.394531 362.710938 " fill-opacity="1" fill-rule="nonzero"/><path fill="#cc8d27" d="M 248.480469 355.851562 C 247.972656 356.191406 247.886719 356.785156 248.140625 357.292969 C 248.480469 357.800781 249.070312 357.882812 249.582031 357.628906 L 254.914062 353.902344 C 255.253906 353.734375 255.339844 353.394531 255.339844 353.140625 C 255.339844 352.972656 255.253906 352.71875 255.171875 352.550781 C 254.832031 352.039062 254.238281 351.957031 253.730469 352.210938 Z M 248.480469 355.851562 " fill-opacity="1" fill-rule="nonzero"/><path fill="#cc8d27" d="M 249.664062 375.246094 C 249.15625 374.910156 248.5625 375.078125 248.226562 375.585938 C 247.886719 376.09375 248.054688 376.6875 248.5625 377.027344 L 253.898438 380.753906 C 254.40625 381.089844 255 380.921875 255.339844 380.414062 C 255.425781 380.242188 255.507812 379.988281 255.507812 379.820312 C 255.507812 379.480469 255.339844 379.226562 255.085938 379.058594 Z M 249.664062 375.246094 " fill-opacity="1" fill-rule="nonzero"/><g clip-path="url(#e9930441dc)"><path fill="#cc8d27" d="M 376.117188 273.867188 L 376.117188 394.472656 L 245.429688 394.472656 C 244.835938 394.472656 244.414062 394.894531 244.414062 395.488281 C 244.414062 396.082031 244.835938 396.503906 245.429688 396.503906 L 377.132812 396.503906 C 377.726562 396.503906 378.148438 396.082031 378.148438 395.488281 L 378.148438 273.867188 C 378.148438 273.273438 377.726562 272.851562 377.132812 272.851562 C 376.539062 272.851562 376.117188 273.359375 376.117188 273.867188 Z M 376.117188 273.867188 " fill-opacity="1" fill-rule="nonzero"/></g><g clip-path="url(#516350fb17)"><path fill="#cc8d27" d="M 152.011719 395.488281 C 152.011719 394.894531 151.585938 394.472656 150.996094 394.472656 L 20.308594 394.472656 L 20.308594 273.867188 C 20.308594 273.273438 19.886719 272.851562 19.292969 272.851562 C 18.699219 272.851562 18.277344 273.273438 18.277344 273.867188 L 18.277344 395.488281 C 18.277344 396.082031 18.699219 396.503906 19.292969 396.503906 L 150.996094 396.503906 C 151.585938 396.421875 152.011719 396.082031 152.011719 395.488281 Z M 152.011719 395.488281 " fill-opacity="1" fill-rule="nonzero"/></g><g clip-path="url(#b01db01126)"><path fill="#cc8d27" d="M 8.28125 -9.519531 L 8.28125 130.226562 L 10.3125 130.226562 L 10.3125 -8.503906 L 157.601562 -8.503906 C 157.683594 -2.238281 159.546875 4.371094 162.257812 9.367188 L 163.527344 10.042969 C 163.867188 10.042969 164.546875 9.027344 164.714844 9.28125 C 164.96875 8.941406 164.460938 7.925781 164.207031 8.011719 C 163.867188 8.097656 163.867188 8.097656 163.867188 8.011719 C 161.15625 2.675781 159.546875 -3.167969 159.546875 -9.519531 C 159.546875 -10.113281 159.125 -10.535156 158.53125 -10.535156 L 9.296875 -10.535156 C 8.789062 -10.535156 8.28125 -10.113281 8.28125 -9.519531 Z M 8.28125 -9.519531 " fill-opacity="1" fill-rule="nonzero"/></g><path fill="#cc8d27" d="M 234.589844 9.027344 L 233.402344 9.195312 C 233.234375 9.621094 234.082031 10.128906 233.910156 10.46875 C 233.996094 10.804688 232.21875 10.890625 232.300781 11.144531 C 232.300781 11.144531 233.402344 10.976562 233.488281 10.976562 L 367.136719 10.976562 L 367.136719 130.226562 L 369.171875 130.226562 L 369.171875 10.636719 C 369.171875 10.042969 368.238281 9.113281 367.644531 9.113281 C 367.730469 9.027344 234.589844 9.027344 234.589844 9.027344 Z M 234.589844 9.027344 " fill-opacity="1" fill-rule="nonzero"/><path fill="#cc8d27" d="M 233.742188 11.144531 C 233.910156 10.804688 234.335938 9.027344 234.757812 8.605469 C 234.335938 8.605469 233.148438 9.195312 233.066406 9.621094 C 233.148438 9.789062 233.574219 10.976562 233.742188 11.144531 Z M 233.742188 11.144531 " fill-opacity="1" fill-rule="nonzero"/><path fill="#cc8d27" d="M 162.683594 10.042969 C 162.34375 9.621094 163.191406 9.875 163.019531 8.859375 L 28.863281 8.859375 C 28.269531 8.859375 27.847656 9.28125 27.847656 9.875 L 27.847656 130.480469 L 29.878906 130.480469 L 29.878906 10.890625 L 162.175781 10.890625 C 162.34375 10.890625 162.429688 10.296875 162.683594 10.042969 Z M 162.683594 10.042969 " fill-opacity="1" fill-rule="nonzero"/><path fill="#cc8d27" d="M 162.429688 9.960938 C 162.597656 9.621094 162.765625 9.449219 162.9375 9.195312 C 162.851562 9.027344 162.511719 8.859375 162.257812 8.859375 L 161.921875 8.859375 C 162.175781 9.28125 162.34375 9.707031 162.429688 9.960938 Z M 162.429688 9.960938 " fill-opacity="1" fill-rule="nonzero"/><path fill="#cc8d27" d="M 159.546875 29.609375 C 159.546875 23.257812 161.074219 17.328125 163.785156 11.992188 C 163.613281 11.484375 163.273438 10.976562 163.019531 10.46875 C 162.851562 10.636719 162.597656 10.550781 162.429688 10.550781 L 162.257812 10.550781 C 159.464844 16.566406 157.855469 22.238281 157.601562 28.675781 L 120.925781 28.675781 C 120.335938 28.675781 119.910156 29.101562 119.910156 29.691406 C 119.910156 30.285156 120.335938 30.710938 120.925781 30.710938 L 158.617188 30.710938 C 159.125 30.710938 159.546875 30.203125 159.546875 29.609375 Z M 159.546875 29.609375 " fill-opacity="1" fill-rule="nonzero"/><g clip-path="url(#d14358a233)"><path fill="#cc8d27" d="M 386.195312 130.308594 L 388.226562 130.308594 L 388.226562 -9.4375 C 388.226562 -10.027344 387.804688 -10.453125 387.210938 -10.453125 L 237.890625 -10.453125 C 237.300781 -10.453125 236.875 -10.027344 236.875 -9.4375 C 236.875 -3.082031 235.265625 2.929688 232.554688 8.265625 C 225.355469 -3.167969 212.566406 -10.789062 198.085938 -10.789062 C 183.601562 -10.789062 170.980469 -3.167969 163.699219 8.179688 C 162.089844 9.707031 163.191406 10.636719 164.714844 10.296875 C 169.542969 2.167969 177.335938 -4.183594 186.480469 -7.0625 C 186.480469 -7.488281 186.652344 -7.828125 186.988281 -8.082031 C 187.328125 -8.25 187.753906 -8.164062 188.089844 -7.996094 L 188.597656 -7.65625 C 191.648438 -8.417969 194.867188 -8.84375 198.085938 -8.84375 C 200.964844 -8.84375 203.929688 -8.417969 206.722656 -7.828125 L 207.0625 -7.996094 C 207.402344 -8.335938 207.742188 -8.335938 208.164062 -8.082031 C 208.503906 -7.910156 208.671875 -7.574219 208.671875 -7.320312 C 218.328125 -4.523438 226.457031 1.914062 231.371094 10.382812 C 226.375 18.765625 218.328125 25.035156 208.757812 27.746094 C 208.671875 28.082031 208.585938 28.253906 208.25 28.421875 C 207.910156 28.59375 207.484375 28.507812 207.148438 28.335938 L 206.976562 28.167969 C 204.183594 28.761719 201.21875 29.183594 198.253906 29.183594 C 195.035156 29.183594 191.734375 28.675781 188.769531 28 L 188.261719 28.507812 C 187.921875 28.847656 187.5 28.847656 187.160156 28.59375 C 186.90625 28.421875 187.160156 28.082031 187.160156 27.746094 C 187.160156 27.660156 186.820312 27.828125 186.820312 27.746094 L 186.90625 27.574219 C 177.671875 24.695312 169.710938 18.429688 164.882812 10.214844 C 164.460938 10.804688 162.34375 9.535156 163.785156 12.246094 C 170.980469 23.59375 183.769531 31.21875 198.253906 31.21875 C 212.738281 31.21875 225.355469 23.679688 232.640625 12.332031 C 235.351562 17.582031 236.875 23.511719 236.875 29.691406 C 236.875 30.285156 237.300781 30.710938 237.890625 30.710938 L 275.75 30.710938 C 276.34375 30.710938 276.765625 30.285156 276.765625 29.691406 C 276.765625 29.101562 276.34375 28.675781 275.75 28.675781 L 238.738281 28.675781 C 238.65625 22.324219 236.960938 16.394531 234.25 11.058594 C 233.910156 10.976562 233.910156 10.46875 233.828125 10.296875 C 233.742188 9.960938 233.65625 9.789062 233.488281 9.703125 C 233.65625 9.367188 233.828125 9.535156 234.164062 9.535156 C 236.960938 4.199219 238.65625 -2.152344 238.910156 -8.417969 L 386.195312 -8.417969 Z M 386.195312 130.308594 " fill-opacity="1" fill-rule="nonzero"/></g><path fill="#cc8d27" d="M 164.96875 9.960938 C 164.546875 9.367188 164.292969 8.773438 163.867188 8.011719 C 163.699219 8.433594 163.359375 8.6875 163.191406 9.113281 C 163.359375 9.28125 162.089844 9.367188 162.089844 9.621094 C 162.089844 9.960938 162.851562 10.550781 162.683594 10.722656 C 162.851562 11.230469 163.613281 11.484375 163.953125 11.992188 C 164.121094 11.398438 164.546875 10.636719 164.96875 9.960938 Z M 164.96875 9.960938 " fill-opacity="1" fill-rule="nonzero"/><path fill="#cc8d27" d="M 234.25 11.058594 C 234.164062 10.722656 233.910156 10.550781 233.828125 10.296875 C 233.742188 10.382812 233.742188 10.46875 233.65625 10.636719 C 233.742188 10.804688 233.910156 10.976562 234.25 11.058594 Z M 234.25 11.058594 " fill-opacity="1" fill-rule="nonzero"/><path fill="#cc8d27" d="M 233.910156 10.296875 C 233.828125 10.128906 233.742188 9.960938 233.574219 9.789062 C 233.488281 9.875 233.488281 9.960938 233.488281 10.128906 C 233.488281 10.296875 233.488281 10.550781 233.574219 10.636719 C 233.574219 10.382812 233.742188 10.296875 233.910156 10.296875 Z M 233.910156 10.296875 " fill-opacity="1" fill-rule="nonzero"/><path fill="#cc8d27" d="M 162.34375 10.890625 C 162.511719 10.890625 162.765625 10.804688 162.9375 10.722656 C 162.851562 10.550781 162.765625 10.296875 162.597656 10.128906 C 162.429688 10.296875 162.175781 10.636719 162.089844 10.890625 C 162.175781 10.890625 162.34375 10.890625 162.34375 10.890625 Z M 162.34375 10.890625 " fill-opacity="1" fill-rule="nonzero"/><path fill="#cc8d27" d="M 163.445312 9.960938 C 163.445312 9.621094 163.359375 9.449219 163.105469 9.28125 C 162.9375 9.621094 162.765625 9.789062 162.597656 10.042969 C 162.683594 10.214844 162.765625 10.46875 162.9375 10.636719 C 163.105469 10.46875 163.359375 10.214844 163.445312 9.960938 Z M 163.445312 9.960938 " fill-opacity="1" fill-rule="nonzero"/><path fill="#cc8d27" d="M 111.609375 23.511719 C 111.1875 23.085938 110.59375 23.085938 110.171875 23.511719 L 104.75 28.929688 C 104.328125 29.355469 104.328125 29.945312 104.75 30.371094 L 110.171875 35.792969 C 110.59375 36.214844 111.1875 36.214844 111.609375 35.792969 L 117.03125 30.371094 C 117.199219 30.203125 117.371094 29.863281 117.371094 29.691406 C 117.371094 29.523438 117.285156 29.183594 117.03125 29.015625 Z M 110.761719 25.628906 L 114.746094 29.609375 L 110.761719 33.589844 L 106.78125 29.609375 Z M 110.761719 25.628906 " fill-opacity="1" fill-rule="nonzero"/><path fill="#cc8d27" d="M 126.179688 16.394531 C 124.0625 16.394531 122.453125 18.003906 122.453125 20.121094 C 122.453125 22.238281 124.144531 23.847656 126.179688 23.847656 C 128.296875 23.847656 129.90625 22.15625 129.90625 20.121094 C 129.90625 18.003906 128.296875 16.394531 126.179688 16.394531 Z M 126.261719 18.429688 C 127.28125 18.429688 127.957031 19.105469 127.957031 20.121094 C 127.957031 21.140625 127.28125 21.816406 126.261719 21.816406 C 125.246094 21.816406 124.570312 21.054688 124.570312 20.121094 C 124.570312 19.105469 125.246094 18.429688 126.261719 18.429688 Z M 126.261719 18.429688 " fill-opacity="1" fill-rule="nonzero"/><path fill="#cc8d27" d="M 126.179688 35.535156 C 124.0625 35.535156 122.453125 37.144531 122.453125 39.261719 C 122.453125 41.382812 124.144531 42.988281 126.179688 42.988281 C 128.296875 42.988281 129.90625 41.296875 129.90625 39.261719 C 129.90625 37.144531 128.296875 35.535156 126.179688 35.535156 Z M 126.261719 37.484375 C 127.28125 37.484375 127.957031 38.164062 127.957031 39.179688 C 127.957031 40.195312 127.28125 40.871094 126.261719 40.871094 C 125.246094 40.871094 124.570312 40.109375 124.570312 39.179688 C 124.570312 38.246094 125.246094 37.484375 126.261719 37.484375 Z M 126.261719 37.484375 " fill-opacity="1" fill-rule="nonzero"/><path fill="#cc8d27" d="M 148.199219 25.964844 C 148.707031 26.136719 149.300781 25.796875 149.386719 25.289062 C 149.386719 25.289062 149.386719 25.203125 149.386719 25.121094 C 149.386719 24.613281 149.046875 24.1875 148.621094 24.101562 L 134.222656 20.375 C 133.714844 20.207031 133.125 20.546875 133.039062 21.054688 C 132.871094 21.5625 133.207031 22.15625 133.714844 22.238281 Z M 148.199219 25.964844 " fill-opacity="1" fill-rule="nonzero"/><path fill="#cc8d27" d="M 148.03125 33.417969 L 133.632812 37.144531 C 133.125 37.230469 132.871094 37.824219 132.953125 38.332031 C 133.039062 38.839844 133.632812 39.09375 134.140625 39.007812 L 148.539062 35.28125 C 149.046875 35.199219 149.300781 34.691406 149.300781 34.265625 C 149.300781 34.265625 149.300781 34.183594 149.300781 34.097656 C 149.214844 33.503906 148.707031 33.164062 148.03125 33.417969 Z M 148.03125 33.417969 " fill-opacity="1" fill-rule="nonzero"/><path fill="#cc8d27" d="M 141.253906 43.667969 C 141.59375 44.175781 142.1875 44.261719 142.695312 44.007812 L 148.03125 40.28125 C 148.199219 40.109375 148.453125 39.773438 148.453125 39.519531 C 148.453125 39.347656 148.367188 39.09375 148.285156 38.925781 C 147.945312 38.417969 147.351562 38.332031 146.84375 38.585938 L 141.507812 42.3125 C 140.914062 42.566406 140.832031 43.160156 141.253906 43.667969 Z M 141.253906 43.667969 " fill-opacity="1" fill-rule="nonzero"/><path fill="#cc8d27" d="M 142.523438 15.378906 C 142.015625 15.039062 141.421875 15.210938 141.085938 15.71875 C 140.746094 16.226562 140.914062 16.820312 141.421875 17.160156 L 146.757812 20.886719 C 147.265625 21.222656 147.859375 21.054688 148.199219 20.546875 C 148.285156 20.375 148.367188 20.121094 148.367188 19.953125 C 148.367188 19.613281 148.285156 19.359375 147.945312 19.191406 Z M 142.523438 15.378906 " fill-opacity="1" fill-rule="nonzero"/><g clip-path="url(#872ce0a3fb)"><path fill="#cc8d27" d="M 208.839844 -7.320312 C 208.839844 -7.402344 208.839844 -7.402344 208.839844 -7.488281 C 208.25 -7.65625 208.25 -9.183594 206.894531 -7.996094 L 197.578125 -1.136719 L 188.515625 -7.742188 C 187.835938 -7.574219 186.652344 -9.183594 186.398438 -7.148438 L 187.5 4.878906 L 176.574219 9.707031 C 176.148438 9.789062 175.640625 10.214844 175.640625 10.636719 C 175.640625 11.058594 176.148438 11.3125 176.574219 11.570312 L 187.667969 16.226562 L 186.398438 28.675781 C 187.242188 28.847656 188.007812 28.421875 188.683594 28.59375 L 197.746094 21.648438 L 207.148438 28.507812 C 207.65625 29.355469 208.503906 29.015625 209.09375 28.847656 C 209.09375 28.761719 209.09375 27.828125 209.09375 27.660156 L 207.910156 15.972656 L 218.835938 11.144531 C 219.257812 11.058594 219.765625 10.636719 219.765625 10.214844 C 219.765625 9.789062 219.257812 9.535156 218.835938 9.28125 L 207.742188 4.625 Z M 206.46875 -4.945312 L 205.453125 5.132812 L 205.453125 5.214844 C 205.453125 5.722656 205.621094 5.980469 206.046875 6.234375 L 215.277344 10.214844 L 206.046875 14.363281 C 205.621094 14.53125 205.453125 15.039062 205.453125 15.464844 L 206.554688 25.542969 L 198.421875 19.613281 C 198.085938 19.277344 197.660156 19.277344 197.238281 19.613281 L 189.105469 25.628906 L 190.125 15.550781 C 190.207031 15.039062 189.953125 14.617188 189.53125 14.449219 L 180.300781 10.46875 L 189.53125 6.316406 C 189.953125 6.148438 190.207031 5.722656 190.125 5.214844 L 189.023438 -4.863281 L 197.152344 1.066406 C 197.492188 1.40625 197.914062 1.40625 198.339844 1.066406 Z M 206.46875 -4.945312 " fill-opacity="1" fill-rule="nonzero"/></g><path fill="#cc8d27" d="M 209.011719 27.492188 C 208.417969 27.660156 207.742188 27.914062 207.0625 28 L 207.230469 28.167969 C 207.570312 28.507812 207.910156 28.507812 208.332031 28.253906 C 208.671875 28.167969 208.839844 27.828125 209.011719 27.492188 Z M 209.011719 27.492188 " fill-opacity="1" fill-rule="nonzero"/><path fill="#cc8d27" d="M 189.023438 28 C 188.261719 27.828125 187.5 27.574219 186.820312 27.40625 C 185.636719 28.167969 187.074219 28.929688 187.328125 29.101562 C 187.582031 29.269531 188.089844 28.507812 188.429688 28.339844 Z M 189.023438 28 " fill-opacity="1" fill-rule="nonzero"/><g clip-path="url(#be2e668502)"><path fill="#cc8d27" d="M 202.066406 7.84375 L 202.40625 4.199219 C 202.488281 3.777344 202.234375 3.4375 201.894531 3.183594 C 201.558594 3.015625 201.132812 3.097656 200.796875 3.269531 L 197.914062 5.386719 L 195.035156 3.269531 C 194.695312 2.929688 194.359375 2.929688 193.933594 3.183594 C 193.597656 3.351562 193.34375 3.777344 193.425781 4.199219 L 193.851562 7.84375 L 190.460938 9.367188 C 190.039062 9.449219 189.699219 9.875 189.699219 10.296875 C 189.699219 10.722656 190.125 10.976562 190.460938 11.230469 L 194.019531 12.667969 L 193.597656 16.3125 C 193.511719 16.734375 193.765625 17.074219 194.105469 17.328125 C 194.441406 17.496094 194.867188 17.414062 195.207031 17.242188 L 198.085938 15.125 L 200.964844 17.242188 C 201.304688 17.582031 201.640625 17.582031 202.066406 17.328125 C 202.40625 17.160156 202.574219 16.734375 202.574219 16.3125 L 202.152344 12.667969 L 205.539062 11.144531 C 205.960938 11.058594 206.300781 10.636719 206.300781 10.214844 C 206.300781 9.789062 205.878906 9.535156 205.539062 9.28125 Z M 198.425781 7.503906 L 200.03125 6.316406 L 199.863281 8.351562 L 199.863281 8.433594 C 199.863281 8.941406 200.03125 9.195312 200.457031 9.449219 L 202.234375 10.214844 L 200.457031 10.976562 C 200.03125 11.144531 199.863281 11.570312 199.863281 12.078125 L 200.03125 14.109375 L 198.425781 12.921875 C 198.085938 12.585938 197.660156 12.585938 197.238281 12.921875 L 195.628906 14.109375 L 195.796875 12.078125 C 195.882812 11.570312 195.628906 11.144531 195.207031 10.976562 L 193.257812 10.214844 L 195.035156 9.449219 C 195.460938 9.28125 195.714844 8.859375 195.628906 8.351562 L 195.460938 6.316406 L 197.070312 7.503906 C 197.492188 7.671875 198 7.671875 198.425781 7.503906 Z M 198.425781 7.503906 " fill-opacity="1" fill-rule="nonzero"/></g><path fill="#cc8d27" d="M 284.898438 35.792969 C 285.320312 36.214844 285.914062 36.214844 286.339844 35.792969 L 291.757812 30.371094 C 291.929688 30.203125 292.097656 29.945312 292.097656 29.691406 C 292.097656 29.355469 292.011719 29.183594 291.757812 29.015625 L 286.339844 23.59375 C 285.914062 23.171875 285.320312 23.171875 284.898438 23.59375 L 279.476562 29.015625 C 279.054688 29.4375 279.054688 30.03125 279.476562 30.457031 Z M 285.660156 33.671875 L 281.679688 29.691406 L 285.660156 25.710938 L 289.640625 29.691406 Z M 285.660156 33.671875 " fill-opacity="1" fill-rule="nonzero"/><path fill="#cc8d27" d="M 270.332031 23.847656 C 272.449219 23.847656 274.058594 22.238281 274.058594 20.121094 C 274.058594 18.003906 272.363281 16.394531 270.332031 16.394531 C 268.214844 16.394531 266.605469 18.089844 266.605469 20.121094 C 266.605469 22.15625 268.214844 23.765625 270.332031 23.847656 Z M 270.160156 21.816406 C 269.144531 21.816406 268.46875 21.140625 268.46875 20.121094 C 268.46875 19.105469 269.144531 18.429688 270.160156 18.429688 C 271.175781 18.429688 271.855469 19.191406 271.855469 20.121094 C 271.941406 21.054688 271.175781 21.816406 270.160156 21.816406 Z M 270.160156 21.816406 " fill-opacity="1" fill-rule="nonzero"/><path fill="#cc8d27" d="M 270.332031 42.90625 C 272.449219 42.90625 274.058594 41.296875 274.058594 39.179688 C 274.058594 37.0625 272.363281 35.453125 270.332031 35.453125 C 268.214844 35.453125 266.605469 37.144531 266.605469 39.179688 C 266.605469 41.210938 268.214844 42.820312 270.332031 42.90625 Z M 270.160156 40.957031 C 269.144531 40.957031 268.46875 40.28125 268.46875 39.261719 C 268.46875 38.246094 269.144531 37.570312 270.160156 37.570312 C 271.175781 37.570312 271.855469 38.332031 271.855469 39.261719 C 271.941406 40.109375 271.175781 40.957031 270.160156 40.957031 Z M 270.160156 40.957031 " fill-opacity="1" fill-rule="nonzero"/><path fill="#cc8d27" d="M 262.285156 20.207031 L 247.800781 24.019531 C 247.292969 24.101562 247.039062 24.695312 247.125 25.203125 C 247.207031 25.710938 247.800781 25.964844 248.308594 25.882812 L 262.707031 22.15625 C 263.214844 22.070312 263.46875 21.5625 263.46875 21.140625 C 263.46875 21.140625 263.46875 21.054688 263.46875 20.96875 C 263.386719 20.460938 262.792969 20.121094 262.285156 20.207031 Z M 262.285156 20.207031 " fill-opacity="1" fill-rule="nonzero"/><path fill="#cc8d27" d="M 247.292969 34.011719 C 247.125 34.519531 247.460938 35.113281 247.972656 35.199219 L 262.371094 38.925781 C 262.878906 39.09375 263.46875 38.753906 263.554688 38.246094 C 263.554688 38.246094 263.554688 38.164062 263.554688 38.078125 C 263.554688 37.570312 263.214844 37.144531 262.792969 37.0625 L 248.394531 33.335938 C 247.800781 33.164062 247.292969 33.503906 247.292969 34.011719 Z M 247.292969 34.011719 " fill-opacity="1" fill-rule="nonzero"/><path fill="#cc8d27" d="M 253.730469 43.835938 C 254.238281 44.175781 254.832031 44.007812 255.171875 43.5 C 255.253906 43.328125 255.339844 43.074219 255.339844 42.90625 C 255.339844 42.566406 255.253906 42.3125 254.917969 42.144531 L 249.582031 38.417969 C 249.070312 38.078125 248.480469 38.246094 248.140625 38.753906 C 247.800781 39.261719 247.972656 39.855469 248.480469 40.195312 Z M 253.730469 43.835938 " fill-opacity="1" fill-rule="nonzero"/><path fill="#cc8d27" d="M 255.085938 16.988281 C 255.253906 16.820312 255.507812 16.480469 255.507812 16.226562 C 255.507812 16.058594 255.425781 15.804688 255.339844 15.632812 C 255 15.125 254.40625 15.039062 253.898438 15.296875 L 248.5625 19.023438 C 248.054688 19.359375 247.972656 19.953125 248.226562 20.460938 C 248.5625 20.96875 249.15625 21.054688 249.664062 20.800781 Z M 255.085938 16.988281 " fill-opacity="1" fill-rule="nonzero"/><g clip-path="url(#6d22479785)"><path fill="#cc8d27" d="M 377.132812 123.195312 C 377.726562 123.195312 378.148438 122.773438 378.148438 122.179688 L 378.148438 0.558594 C 378.148438 -0.0351562 377.726562 -0.457031 377.132812 -0.457031 L 245.429688 -0.457031 C 244.835938 -0.457031 244.414062 -0.0351562 244.414062 0.558594 C 244.414062 1.152344 244.835938 1.574219 245.429688 1.574219 L 376.117188 1.574219 L 376.117188 122.179688 C 376.117188 122.6875 376.539062 123.195312 377.132812 123.195312 Z M 377.132812 123.195312 " fill-opacity="1" fill-rule="nonzero"/></g><g clip-path="url(#baa39ee53d)"><path fill="#cc8d27" d="M 150.996094 -0.457031 L 19.292969 -0.457031 C 18.699219 -0.457031 18.277344 -0.0351562 18.277344 0.558594 L 18.277344 122.179688 C 18.277344 122.773438 18.699219 123.195312 19.292969 123.195312 C 19.886719 123.195312 20.308594 122.773438 20.308594 122.179688 L 20.308594 1.574219 L 150.996094 1.574219 C 151.585938 1.574219 152.011719 1.152344 152.011719 0.558594 C 152.011719 -0.121094 151.585938 -0.457031 150.996094 -0.457031 Z M 150.996094 -0.457031 " fill-opacity="1" fill-rule="nonzero"/></g><path fill="#cc8d27" d="M 367.222656 265.820312 L 367.222656 130.648438 L 369.253906 130.648438 L 369.253906 265.820312 Z M 367.222656 265.820312 " fill-opacity="1" fill-rule="nonzero"/><path fill="#cc8d27" d="M 386.195312 265.738281 L 386.195312 130.226562 L 388.226562 130.226562 L 388.226562 265.738281 Z M 386.195312 265.738281 " fill-opacity="1" fill-rule="nonzero"/><path fill="#cc8d27" d="M 8.28125 265.820312 L 8.28125 130.140625 L 10.3125 130.140625 L 10.3125 265.820312 Z M 8.28125 265.820312 " fill-opacity="1" fill-rule="nonzero"/><path fill="#cc8d27" d="M 27.847656 265.566406 L 27.847656 130.480469 L 29.878906 130.480469 L 29.878906 265.566406 Z M 27.847656 265.566406 " fill-opacity="1" fill-rule="nonzero"/></svg>